<svg width="47" height="50" viewBox="0 0 47 50" fill="none" xmlns="http://www.w3.org/2000/svg">
<path d="M46.875 26.6125C46.8743 30.984 45.6511 35.2682 43.3434 38.981C41.0358 42.6938 37.7358 45.6872 33.8163 47.623C29.8968 49.5589 25.514 50.3599 21.1631 49.9357C16.8123 49.5115 12.6668 47.8789 9.19499 45.2225C5.72323 42.566 3.0636 38.9915 1.51662 34.9029C-0.030362 30.8142 -0.403036 26.3745 0.440705 22.0852C1.28445 17.7959 3.31097 13.828 6.29131 10.63C9.27164 7.43189 13.087 5.13108 17.3063 3.9875C17.1726 3.52205 17.1489 3.0319 17.2372 2.55574C17.3254 2.07958 17.523 1.63043 17.8146 1.24375C18.1061 0.857065 18.4835 0.543426 18.917 0.327581C19.3505 0.111736 19.8282 -0.000406867 20.3125 1.10918e-06H26.5625C27.0468 -0.000406867 27.5245 0.111736 27.958 0.327581C28.3915 0.543426 28.7689 0.857065 29.0604 1.24375C29.352 1.63043 29.5496 2.07958 29.6378 2.55574C29.7261 3.0319 29.7024 3.52205 29.5688 3.9875C34.5371 5.33576 38.9237 8.28171 42.0514 12.3707C45.1792 16.4597 46.8742 21.4644 46.875 26.6125ZM35.5938 14.4094L20.125 23.2469L11.2813 38.7188L26.75 29.8813L35.5875 14.4125L35.5938 14.4094Z" fill="white"/>
</svg>
