<svg width="50" height="50" viewBox="0 0 50 50" fill="none" xmlns="http://www.w3.org/2000/svg">
<path d="M0 15.5778C0.000762989 19.1941 1.25536 22.6982 3.55003 25.4932C5.8447 28.2882 9.03747 30.2011 12.5844 30.906C12.7864 28.667 13.361 26.4775 14.2844 24.4278C11.5469 23.5028 9.7875 21.4028 9.375 18.4216H7.8125V17.0903H9.26875V15.7341C9.26875 15.5903 9.26875 15.4435 9.28125 15.3122H7.8125V13.9778H9.40938C10.1125 10.0778 13.1656 7.76533 17.7531 7.76533C18.7406 7.76533 19.5969 7.86221 20.3125 8.03096V10.3216C19.4767 10.1356 18.6217 10.0496 17.7656 10.0653C14.8938 10.0653 12.9594 11.5216 12.3469 13.9778H18.3375V15.3122H12.15C12.1406 15.456 12.1406 15.6153 12.1406 15.7716V17.0903H18.3375V18.4247H12.2812C12.65 20.306 13.7437 21.6435 15.4219 22.2653C17.0673 19.5402 19.3302 17.24 22.028 15.5502C24.7259 13.8604 27.7831 12.8283 30.9531 12.5372C30.1867 8.74193 28.039 5.36616 24.926 3.06381C21.813 0.761455 17.9563 -0.303614 14.103 0.0749117C10.2497 0.453438 6.67394 2.24862 4.06848 5.11271C1.46301 7.97681 0.0132405 11.706 0 15.5778ZM50 32.7653C50 37.3237 48.1892 41.6954 44.9659 44.9187C41.7426 48.142 37.3709 49.9528 32.8125 49.9528C28.2541 49.9528 23.8824 48.142 20.6591 44.9187C17.4358 41.6954 15.625 37.3237 15.625 32.7653C15.625 28.2069 17.4358 23.8352 20.6591 20.6119C23.8824 17.3887 28.2541 15.5778 32.8125 15.5778C37.3709 15.5778 41.7426 17.3887 44.9659 20.6119C48.1892 23.8352 50 28.2069 50 32.7653ZM25.7812 36.8966C25.9969 39.506 28.1125 41.5372 31.9187 41.7778V43.7028H33.6063V41.7653C37.5406 41.4966 39.8438 39.4528 39.8438 36.4841C39.8438 33.781 38.0844 32.3903 34.9375 31.6716L33.6063 31.3591V26.1216C35.2938 26.3091 36.3688 27.206 36.625 28.4497H39.5875C39.3688 25.9372 37.1531 23.9716 33.6063 23.756V21.8278H31.9187V23.7935C28.5562 24.1153 26.2688 26.081 26.2688 28.8622C26.2688 31.3216 27.9688 32.8872 30.8 33.5278L31.9187 33.7935V39.356C30.1875 39.106 29.0438 38.181 28.7844 36.8966H25.7812ZM31.9062 30.9747C30.2437 30.5997 29.3438 29.8372 29.3438 28.6872C29.3438 27.406 30.3156 26.4403 31.9187 26.1591V30.9716H31.9031L31.9062 30.9747ZM33.85 34.2372C35.8656 34.6903 36.7969 35.4247 36.7969 36.7247C36.7969 38.206 35.6406 39.2247 33.6094 39.4122V34.181L33.85 34.2372Z" fill="white"/>
</svg>
