<svg width="72" height="57" viewBox="0 0 72 57" fill="none" xmlns="http://www.w3.org/2000/svg">
<g clip-path="url(#clip0_308_2178)">
<path d="M11.6952 43.0695C12.1297 42.635 12.7272 42.3816 13.3608 42.3816H70.8232C71.8733 42.3816 72.3983 43.6489 71.656 44.3911L60.3047 55.7424C59.8702 56.1769 59.2728 56.4304 58.6392 56.4304H1.17675C0.126716 56.4304 -0.398303 55.1631 0.343965 54.4208L11.6952 43.0695Z" fill="url(#paint0_linear_308_2178)"/>
<path d="M11.6952 0.687956C12.1478 0.253457 12.7453 0 13.3608 0H70.8232C71.8733 0 72.3983 1.26729 71.656 2.00956L60.3047 13.3608C59.8702 13.7953 59.2728 14.0488 58.6392 14.0488H1.17675C0.126716 14.0488 -0.398303 12.7815 0.343965 12.0392L11.6952 0.687956Z" fill="url(#paint1_linear_308_2178)"/>
<path d="M60.3047 21.7431C59.8702 21.3086 59.2728 21.0552 58.6392 21.0552H1.17675C0.126716 21.0552 -0.398303 22.3225 0.343965 23.0647L11.6952 34.416C12.1297 34.8505 12.7272 35.104 13.3608 35.104H70.8232C71.8733 35.104 72.3983 33.8367 71.656 33.0944L60.3047 21.7431Z" fill="url(#paint2_linear_308_2178)"/>
</g>
<defs>
<linearGradient id="paint0_linear_308_2178" x1="65.3339" y1="-6.78105" x2="25.5653" y2="69.3917" gradientUnits="userSpaceOnUse">
<stop stop-color="#00FFA3"/>
<stop offset="1" stop-color="#DC1FFF"/>
</linearGradient>
<linearGradient id="paint1_linear_308_2178" x1="47.9449" y1="-15.8594" x2="8.17634" y2="60.3133" gradientUnits="userSpaceOnUse">
<stop stop-color="#00FFA3"/>
<stop offset="1" stop-color="#DC1FFF"/>
</linearGradient>
<linearGradient id="paint2_linear_308_2178" x1="56.5841" y1="-11.349" x2="16.8155" y2="64.8238" gradientUnits="userSpaceOnUse">
<stop stop-color="#00FFA3"/>
<stop offset="1" stop-color="#DC1FFF"/>
</linearGradient>
<clipPath id="clip0_308_2178">
<rect width="72" height="56.4305" fill="white"/>
</clipPath>
</defs>
</svg>
