<svg width="63" height="72" viewBox="0 0 63 72" fill="none" xmlns="http://www.w3.org/2000/svg">
<path d="M12.001 11.0995L31.2019 0L50.4029 11.0995L43.2029 14.999L31.2019 8.09856L18.9014 14.999L12.001 11.0995ZM50.1005 24.9005L43.2 21.001L31.2019 27.9014L18.9014 21.001L12.001 24.9005V33.0019L24.0019 39.9024V54.0029L30.9024 58.2019L37.8029 54.0029V40.2019L49.8038 33.3014V24.9005H50.1005ZM50.1005 47.0995V39.001L43.2029 43.2V50.999L50.1005 47.0995ZM55.201 49.801L43.2 56.7014V64.8L62.401 53.7005V31.5014L55.201 36V49.801ZM48.3034 18L55.2038 22.199V30.3005L62.1043 26.1014V18L55.2038 13.801L48.3034 18ZM24.0019 59.6995V67.7981L30.9024 71.9971L37.8029 67.7981V59.6995L30.9024 63.8985L24.0019 59.6995ZM12.001 47.0995L18.9014 50.999V42.9005L12.001 38.7014V47.0995ZM24.0019 18L30.9024 22.199L38.1024 18L31.2019 13.801L24.0019 18ZM6.90048 22.199L14.1005 18L6.90048 13.801L0.00287974 18V26.0986L6.90336 30.2976V22.199H6.90048ZM6.90048 36L0 31.801V54L19.201 65.0995V57.0009L7.2 50.1005V36H6.90048Z" fill="#F0B90B"/>
</svg>
