<svg width="72" height="72" viewBox="0 0 72 72" fill="none" xmlns="http://www.w3.org/2000/svg">
<path d="M58.2183 12.3115H13.7336V52.7427H58.2183V12.3115Z" fill="white"/>
<path fill-rule="evenodd" clip-rule="evenodd" d="M72 35.9761C72 55.8453 55.8825 71.9521 36 71.9521C16.1177 71.9521 0 55.8453 0 35.9761C0 16.107 16.1177 0 36 0C55.8825 0 72 16.107 72 35.9761ZM25.7986 50.2927H18.812C17.3439 50.2927 16.6188 50.2927 16.1766 50.0101C15.699 49.7006 15.4072 49.188 15.3718 48.6223C15.3453 48.1011 15.7079 47.4645 16.4331 46.1919L33.6838 15.8053C34.4179 14.5149 34.7893 13.8698 35.258 13.6311C35.7621 13.3749 36.3635 13.3749 36.8676 13.6311C37.3363 13.8698 37.7078 14.5149 38.4418 15.8053L41.9882 21.9918L42.0062 22.0234C42.7991 23.4077 43.2011 24.1097 43.3766 24.8464C43.5712 25.6507 43.5712 26.4991 43.3766 27.3034C43.1998 28.0458 42.8018 28.7528 41.997 30.158L32.9356 46.1654L32.9121 46.2064C32.1141 47.6021 31.7097 48.3095 31.1492 48.8431C30.5389 49.4266 29.8049 49.8506 29.0001 50.0896C28.266 50.2927 27.4436 50.2927 25.7986 50.2927ZM43.4421 50.2927H53.453C54.93 50.2927 55.673 50.2927 56.1154 50.0015C56.5929 49.692 56.8934 49.1703 56.9203 48.605C56.9457 48.1006 56.591 47.4889 55.8959 46.2902C55.8719 46.2494 55.8479 46.2078 55.8235 46.1656L50.8089 37.5928L50.7519 37.4963C50.0472 36.3055 49.6915 35.7042 49.2347 35.4717C48.7309 35.2154 48.1379 35.2154 47.634 35.4717C47.1741 35.7103 46.8027 36.3378 46.0687 37.6016L41.0719 46.1744L41.0548 46.2039C40.3234 47.4657 39.9578 48.0963 39.9842 48.6137C40.0195 49.1794 40.3114 49.7006 40.7889 50.0101C41.2223 50.2927 41.9652 50.2927 43.4421 50.2927Z" fill="#E84142"/>
</svg>
