<svg width="37" height="24" viewBox="0 0 37 24" fill="none" xmlns="http://www.w3.org/2000/svg">
<path d="M3.12768 3.125H33.1027L18.1152 20.2531L3.12768 3.125ZM0.774556 5.18438L15.7621 22.3094C16.0554 22.645 16.4171 22.9141 16.823 23.0984C17.2288 23.2827 17.6694 23.3781 18.1152 23.3781C18.5609 23.3781 19.0015 23.2827 19.4074 23.0984C19.8133 22.9141 20.175 22.645 20.4683 22.3094L35.4558 5.18438C37.2246 3.1625 35.7871 1.14908e-06 33.1027 1.14908e-06H3.12768C2.52692 -0.000513936 1.93874 0.17215 1.43358 0.497315C0.928424 0.822482 0.527702 1.28637 0.279402 1.83342C0.0311026 2.38047 -0.0542487 2.98749 0.0335695 3.58181C0.121388 4.17612 0.378652 4.73252 0.774556 5.18438Z" fill="white"/>
</svg>
