<svg width="38" height="50" viewBox="0 0 38 50" fill="none" xmlns="http://www.w3.org/2000/svg">
<path d="M18.75 50C29.1062 50 37.5 43.75 37.5 32.8125C37.5 28.125 35.9375 20.3125 29.6875 14.0625C30.4688 18.75 25.7812 20.3125 25.7812 20.3125C28.125 12.5 21.875 1.5625 12.5 0C13.6156 6.25 14.0625 12.5 6.25 18.75C2.34375 21.875 0 27.2781 0 32.8125C0 43.75 8.39375 50 18.75 50ZM18.75 46.875C13.5719 46.875 9.375 43.75 9.375 38.2812C9.375 35.9375 10.1562 32.0312 13.2812 28.9062C12.8906 31.25 15.625 32.8125 15.625 32.8125C14.4531 28.9062 17.1875 22.6562 21.875 21.875C21.3156 25 21.0938 28.125 25 31.25C26.9531 32.8125 28.125 35.5125 28.125 38.2812C28.125 43.75 23.9281 46.875 18.75 46.875Z" fill="white" fill-opacity="0.6"/>
</svg>
