<svg width="130" height="3" viewBox="0 0 130 3" fill="none" xmlns="http://www.w3.org/2000/svg">
<path d="M128 3.00001L129.5 3.00001L129.5 1.13212e-05L128 1.11901e-05L128 1.50001L128 3.00001ZM10.6667 3C11.4951 3 12.1667 2.32843 12.1667 1.5C12.1667 0.671574 11.4951 1.00493e-06 10.6667 9.3251e-07L10.6667 1.5L10.6667 3ZM32 2.79753e-06C31.1716 2.72511e-06 30.5 0.671576 30.5 1.5C30.5 2.32843 31.1716 3 32 3L32 1.5L32 2.79753e-06ZM53.3333 3C54.1618 3 54.8333 2.32843 54.8333 1.5C54.8333 0.671578 54.1618 4.73497e-06 53.3333 4.66255e-06L53.3333 1.5L53.3333 3ZM74.6667 6.52757e-06C73.8382 6.45514e-06 73.1667 0.671579 73.1667 1.50001C73.1667 2.32843 73.8382 3.00001 74.6667 3.00001L74.6667 1.50001L74.6667 6.52757e-06ZM96 3.00001C96.8284 3.00001 97.5 2.32844 97.5 1.50001C97.5 0.671581 96.8284 8.46501e-06 96 8.39259e-06L96 1.50001L96 3.00001ZM117.333 1.02576e-05C116.505 1.01852e-05 115.833 0.671583 115.833 1.50001C115.833 2.32844 116.505 3.00001 117.333 3.00001L117.333 1.50001L117.333 1.02576e-05ZM0 1.5L-1.31134e-07 3L10.6667 3L10.6667 1.5L10.6667 9.3251e-07L1.31134e-07 0L0 1.5ZM32 1.5L32 3L53.3333 3L53.3333 1.5L53.3333 4.66255e-06L32 2.79753e-06L32 1.5ZM74.6667 1.50001L74.6667 3.00001L96 3.00001L96 1.50001L96 8.39259e-06L74.6667 6.52757e-06L74.6667 1.50001ZM117.333 1.50001L117.333 3.00001L128 3.00001L128 1.50001L128 1.11901e-05L117.333 1.02576e-05L117.333 1.50001Z" fill="white" fill-opacity="0.5"/>
</svg>
