<svg width="72" height="69" viewBox="0 0 72 69" fill="none" xmlns="http://www.w3.org/2000/svg">
<path d="M36.0012 14.4362C42.8537 14.4362 48.4087 11.2045 48.4087 7.21809C48.4087 3.23165 42.8537 0 36.0012 0C29.1488 0 23.5938 3.23165 23.5938 7.21809C23.5938 11.2045 29.1488 14.4362 36.0012 14.4362Z" fill="#E6007A"/>
<path d="M36.0012 68.8231C42.8537 68.8231 48.4087 65.5915 48.4087 61.6051C48.4087 57.6186 42.8537 54.387 36.0012 54.387C29.1488 54.387 23.5938 57.6186 23.5938 61.6051C23.5938 65.5915 29.1488 68.8231 36.0012 68.8231Z" fill="#E6007A"/>
<path d="M18.7106 24.4278C22.1368 18.492 22.1146 12.0631 18.6609 10.0686C15.2072 8.074 9.62997 11.269 6.20374 17.2049C2.77751 23.1407 2.79975 29.5696 6.25341 31.5641C9.70707 33.5587 15.2843 30.3637 18.7106 24.4278Z" fill="#E6007A"/>
<path d="M65.7934 51.618C69.2196 45.6822 69.1993 39.2544 65.748 37.2612C62.2966 35.268 56.7213 38.4641 53.295 44.3999C49.8688 50.3358 49.8892 56.7635 53.3405 58.7568C56.7918 60.75 62.3672 57.5539 65.7934 51.618Z" fill="#E6007A"/>
<path d="M18.6626 58.7552C22.1163 56.7606 22.1385 50.3317 18.7123 44.3959C15.286 38.4601 9.70878 35.265 6.25512 37.2596C2.80146 39.2542 2.77922 45.683 6.20545 51.6189C9.63168 57.5547 15.2089 60.7497 18.6626 58.7552Z" fill="#E6007A"/>
<path d="M65.7509 31.5657C69.2022 29.5725 69.2226 23.1447 65.7963 17.2089C62.3701 11.273 56.7947 8.07693 53.3434 10.0702C49.8921 12.0634 49.8717 18.4911 53.298 24.427C56.7242 30.3628 62.2996 33.5589 65.7509 31.5657Z" fill="#E6007A"/>
</svg>
