<svg width="50" height="39" viewBox="0 0 50 39" fill="none" xmlns="http://www.w3.org/2000/svg">
<path d="M25.907 0C25.9498 1.06364 25.9924 2.12729 26.0353 3.19093C25.2072 3.19093 24.7933 3.19093 23.9652 3.19093C24.008 2.12729 24.0508 1.06364 24.0934 0C22.4141 0 20.735 0 19.0558 0C15.6801 12.8203 12.3038 25.6402 8.92822 38.4607C13.4682 38.4607 18.0083 38.4607 22.5482 38.4607C22.5909 37.3969 22.6336 36.3333 22.6764 35.2697C24.2257 35.2697 25.7749 35.2697 27.324 35.2697C27.3671 36.3334 27.4097 37.3969 27.4523 38.4607C31.9923 38.4607 36.5322 38.4607 41.0722 38.4607C37.6965 25.6404 34.3204 12.8204 30.9447 0C29.2656 0 27.5863 0 25.907 0ZM23.773 7.96865C24.591 7.96865 25.4091 7.96821 26.2272 7.96843C26.346 10.9261 26.4647 13.8839 26.5837 16.8414C25.528 16.8414 24.4724 16.8414 23.4165 16.8414C23.5357 13.884 23.6543 10.9263 23.773 7.96865ZM22.8682 30.4919C22.9869 27.5344 23.1059 24.5768 23.2247 21.6192C24.4084 21.6192 25.592 21.619 26.7755 21.619C26.8944 24.5765 27.0133 27.5344 27.132 30.4919C25.7109 30.4919 24.2895 30.4919 22.8682 30.4919Z" fill="white" fill-opacity="0.6"/>
<path d="M34.2468 0C33.5608 0 33.2177 0 32.5317 0C36.8093 12.8203 41.0858 25.6404 45.3635 38.4607C46.909 38.4607 48.4547 38.4607 50.0002 38.4607C44.7492 25.6402 39.498 12.8203 34.2468 0Z" fill="white" fill-opacity="0.6"/>
<path d="M15.7534 0C10.5022 12.8204 5.2508 25.6402 0 38.4607C1.54562 38.4607 3.09113 38.4607 4.63675 38.4607C8.91394 25.6404 13.191 12.8204 17.4684 0C16.7825 0 16.4394 0 15.7534 0Z" fill="white" fill-opacity="0.6"/>
</svg>
