<svg width="50" height="41" viewBox="0 0 50 41" fill="none" xmlns="http://www.w3.org/2000/svg">
<path d="M9.12188 4.87976C7.80938 4.44183 7.10626 3.02639 7.54376 1.71261C7.98126 0.398827 9.39532 -0.304985 10.7078 0.132942L19.5359 3.08113C20.6141 1.23558 22.6219 0 24.9109 0C28.3641 0 31.1609 2.79961 31.1609 6.2561C31.1609 6.49071 31.1453 6.71749 31.1219 6.94428L40.7 10.1427C42.0125 10.5806 42.7156 11.9961 42.2781 13.3099C41.8406 14.6236 40.4266 15.3275 39.1141 14.8895L28.5359 11.3548C28.1844 11.6051 27.8094 11.8162 27.4109 11.9961V37.5366C27.4109 38.9208 26.2938 40.0391 24.9109 40.0391H9.91095C8.52813 40.0391 7.41095 38.9208 7.41095 37.5366C7.41095 36.1525 8.52813 35.0342 9.91095 35.0342H22.4109V11.9883C20.7703 11.2688 19.5047 9.87682 18.9578 8.15639L9.12188 4.87194V4.87976ZM15.5672 22.522L9.91095 12.8094L4.2547 22.522H15.5672ZM9.91095 30.0293C4.99688 30.0293 0.910947 27.3705 0.0671969 23.8592C-0.135928 22.999 0.145322 22.1153 0.590634 21.349L8.02813 8.5865C8.41876 7.91397 9.13751 7.50732 9.91095 7.50732C10.6844 7.50732 11.4031 7.92179 11.7938 8.5865L19.2313 21.349C19.6766 22.1153 19.9578 22.999 19.7547 23.8592C18.9109 27.3705 14.825 30.0293 9.91095 30.0293ZM39.8172 22.8191L34.1609 32.5317H45.4813L39.8172 22.8191ZM49.6609 33.869C48.8172 37.3802 44.7313 40.0391 39.8172 40.0391C34.9031 40.0391 30.8172 37.3802 29.9734 33.869C29.7703 33.0088 30.0516 32.1251 30.4969 31.3587L37.9344 18.5963C38.325 17.9237 39.0438 17.5171 39.8172 17.5171C40.5906 17.5171 41.3094 17.9316 41.7 18.5963L49.1375 31.3587C49.5828 32.1251 49.8641 33.0088 49.6609 33.869Z" fill="white" fill-opacity="0.6"/>
</svg>
